<svg height="35pt" viewBox="0 -30 512 512" width="35pt" xmlns="http://www.w3.org/2000/svg"><path d="m463.722656 71.890625h-85.207031c-3.210937 0-5.816406-2.605469-5.816406-5.816406v-52.75c0-3.210938 2.605469-5.816407 5.816406-5.816407h85.207031c3.210938 0 5.816406 2.605469 5.816406 5.816407v52.75c0 3.210937-2.601562 5.816406-5.816406 5.816406zm0 0" fill="#f5d573"/><path d="m463.722656 71.890625h-25.738281v-64.382813h25.738281c3.210938 0 5.816406 2.605469 5.816406 5.816407v52.75c0 3.210937-2.601562 5.816406-5.816406 5.816406zm0 0" fill="#f3cc50"/><path d="m456.828125 111.65625v-39.765625h-72.441406v39.765625c0 6.972656-2.523438 13.710938-7.097657 18.976562l-23.785156 27.359376c-4.574218 5.265624-7.09375 12.003906-7.09375 18.976562v22.523438h148.394532v-22.523438c0-6.972656-2.523438-13.710938-7.097657-18.976562l-23.785156-27.359376c-4.574219-5.265624-7.09375-12.003906-7.09375-18.976562zm0 0" fill="#f72c2c"/><path d="m494.800781 176.972656v22.519532h-25.265625v-22.519532c0-6.980468-2.511718-13.714844-7.09375-18.980468l-23.785156-27.355469c-4.574219-5.265625-7.097656-12.003907-7.097656-18.980469v-39.765625h25.265625v39.765625c0 6.980469 2.523437 13.714844 7.097656 18.980469l23.78125 27.355469c4.585937 5.265624 7.097656 12.003906 7.097656 18.980468zm0 0" fill="#e32929"/><path d="m325.796875 130.414062h-155.128906l-16.628907 25.160157c-2.597656 3.933593-3.984374 8.542969-3.984374 13.257812v30.425781h196.355468v-30.425781c0-4.714843-1.386718-9.324219-3.984375-13.257812zm0 0" fill="#8e2d2a"/><path d="m346.40625 168.832031v30.429688h-26.023438v-30.429688c0-4.714843-1.386718-9.320312-3.984374-13.253906l-16.625-25.164063h26.023437l16.628906 25.164063c2.597657 3.933594 3.980469 8.539063 3.980469 13.253906zm0 0" fill="#771f1f"/><path d="m333.109375 130.414062h-169.753906c-3.292969 0-5.960938-2.671874-5.960938-5.964843v-27.925781c0-3.292969 2.667969-5.964844 5.960938-5.964844h169.753906c3.292969 0 5.960937 2.671875 5.960937 5.964844v27.925781c0 3.292969-2.667968 5.964843-5.960937 5.964843zm0 0" fill="#efe2dd"/><path d="m333.109375 130.414062h-21.710937v-39.855468h21.710937c3.292969 0 5.960937 2.671875 5.960937 5.964844v27.925781c0 3.292969-2.667968 5.964843-5.960937 5.964843zm0 0" fill="#e1d3ce"/><path d="m311.398438 199.257812h-126.332032v-25.207031c0-2.765625 2.242188-5.007812 5.007813-5.007812h116.316406c2.765625 0 5.007813 2.242187 5.007813 5.007812zm0 0" fill="#c9f0ff"/><path d="m311.398438 199.257812h-24.976563v-30.214843h19.96875c2.765625 0 5.007813 2.242187 5.007813 5.007812zm0 0" fill="#9ae7fd"/><path d="m134.101562 126.144531c-5.6875-20.585937-23.324218-35.769531-44.554687-38.089843-13.101563-1.433594-23.800781.769531-23.800781.769531s-10.699219 2.203125-22.171875 8.691406c-18.585938 10.519531-28.792969 31.433594-25.886719 52.59375 2.316406 16.894531 8.503906 46.722656 24.949219 80.226563l50.117187-10.316407 50.113282-10.316406c1.875-37.273437-4.222657-67.125-8.765626-83.558594zm0 0" fill="#f78e3c"/><path d="m142.871094 209.703125-23.375 4.816406c1.304687-36.796875-4.742188-66.214843-9.296875-82.679687-5.917969-21.433594-24.273438-37.226563-46.363281-39.648438-2.675782-.292968-5.246094-.441406-7.660157-.480468 5.644531-2.074219 9.570313-2.882813 9.570313-2.882813s10.699218-2.203125 23.804687-.773437c21.226563 2.324218 38.867188 17.507812 44.550781 38.089843 4.546876 16.433594 10.640626 46.28125 8.769532 83.558594zm0 0" fill="#e8782d"/><path d="m256 247.773438h-219.210938l27.757813 159.859374c3.625 20.890626 21.753906 36.144532 42.957031 36.144532h296.992188c21.203125 0 39.332031-15.253906 42.957031-36.144532l27.757813-159.859374zm0 0" fill="#ffc143"/><path d="m475.210938 247.773438-27.757813 159.867187c-3.621094 20.886719-21.757813 36.132813-42.960937 36.132813h-30.628907c21.199219 0 39.335938-15.246094 42.960938-36.132813l27.757812-159.867187zm0 0" fill="#ffb509"/><path d="m499.488281 247.773438h-486.976562c-2.765625 0-5.003907-2.242188-5.003907-5.003907v-38.839843c0-2.765626 2.238282-5.003907 5.003907-5.003907h486.976562c2.765625 0 5.003907 2.238281 5.003907 5.003907v38.839843c0 2.761719-2.238282 5.003907-5.003907 5.003907zm0 0" fill="#f9efef"/><path d="m499.488281 247.773438h-24.277343v-48.847657h24.277343c2.765625 0 5.003907 2.238281 5.003907 5.003907v38.839843c0 2.761719-2.238282 5.003907-5.003907 5.003907zm0 0" fill="#efe2dd"/><path d="m45.191406 147.609375c.5 0 1.007813-.050781 1.519532-.15625l21.425781-4.40625c4.0625-.835937 6.675781-4.808594 5.839843-8.867187-.835937-4.0625-4.804687-6.675782-8.867187-5.839844l-21.425781 4.410156c-4.0625.835938-6.675782 4.804688-5.839844 8.863281.730469 3.550781 3.855469 5.996094 7.347656 5.996094zm0 0"/><path d="m94.3125 174.550781c.5 0 1.011719-.050781 1.523438-.15625l21.425781-4.410156c4.058593-.835937 6.671875-4.804687 5.839843-8.867187-.835937-4.058594-4.808593-6.679688-8.867187-5.835938l-21.425781 4.410156c-4.0625.835938-6.675782 4.804688-5.839844 8.863282.730469 3.550781 3.855469 5.996093 7.34375 5.996093zm0 0"/><path d="m502.308594 191.75v-14.78125c0-8.78125-3.171875-17.273438-8.9375-23.902344l-23.78125-27.359375c-3.390625-3.898437-5.253906-8.886719-5.253906-14.050781v-32.292969c7.058593-.324219 12.710937-6.152343 12.710937-13.292969v-52.746093c0-7.347657-5.976563-13.324219-13.324219-13.324219h-85.207031c-7.34375 0-13.324219 5.976562-13.324219 13.324219v52.746093c0 6.792969 5.113282 12.402344 11.6875 13.214844v32.371094c0 5.164062-1.867187 10.152344-5.253906 14.050781l-22.703125 26.113281c-.078125-.125-.152344-.257812-.234375-.382812l-9.800781-14.835938c4.539062-2.167968 7.691406-6.792968 7.691406-12.152343v-27.925781c0-7.425782-6.042969-13.46875-13.46875-13.46875h-102.632813c-4.148437 0-7.507812 3.359374-7.507812 7.507812 0 4.144531 3.359375 7.503906 7.507812 7.503906h101.085938v24.839844h-166.660156v-24.839844h30.875c4.144531 0 7.503906-3.359375 7.503906-7.503906 0-4.148438-3.359375-7.507812-7.503906-7.507812h-32.417969c-7.429687 0-13.472656 6.042968-13.472656 13.46875v27.925781c0 5.359375 3.152343 9.984375 7.695312 12.152343l-9.804687 14.835938c-.15625.234375-.289063.480469-.4375.71875-1.734375-11.019531-3.910156-20.457031-6-28.011719-6.574219-23.789062-26.582032-40.886719-50.976563-43.554687-4.050781-.441406-7.890625-.566406-11.316406-.515625l11.179687-20.578125c1.980469-3.644532.628907-8.199219-3.011718-10.179688-3.644532-1.980468-8.199219-.632812-10.183594 3.011719l-8.074219 14.863281-5.691406-27.65625c-.835937-4.0625-4.804687-6.679687-8.867187-5.839844-4.0625.835938-6.675782 4.804688-5.839844 8.863282l5.691406 27.660156-13.289062-10.464844c-3.257813-2.566406-7.976563-2.007812-10.542969 1.253906-2.566407 3.257813-2.003907 7.976563 1.253906 10.542969l18.398437 14.488281c-3.167968 1.304688-6.644531 2.933594-10.191406 4.941407-21.355468 12.085937-32.988281 35.699219-29.632812 60.148437 1.453125 10.566406 4.117187 24.398438 8.960937 40.289063h-6.695312c-6.898438 0-12.511719 5.613281-12.511719 12.511719v38.839843c0 6.898438 5.613281 12.511719 12.511719 12.511719h17.960937l5.746094 33.089844c.707031 4.085937 4.589844 6.820312 8.679688 6.113281 4.085937-.710937 6.820312-4.597656 6.113281-8.683594l-5.300781-30.519531h420.578124l-26.230468 151.070312c-3.011719 17.335938-17.96875 29.917969-35.566406 29.917969h-296.988282c-17.597656 0-32.554687-12.582031-35.5625-29.917969l-14.972656-86.230468c-.707031-4.085938-4.59375-6.824219-8.679688-6.113282-4.085937.710938-6.820312 4.597657-6.113281 8.683594l14.972657 86.226563c4.261718 24.546875 25.441406 42.367187 50.355468 42.367187h296.992188c24.914062 0 46.09375-17.820312 50.355468-42.367187l26.675782-153.636719h17.960937c6.898438 0 12.511719-5.613281 12.511719-12.511719v-38.839843c0-5.925782-4.148438-10.894532-9.691406-12.179688zm-122.101563-176.734375h81.824219v49.367187h-81.824219zm-26.289062 161.953125c0-5.164062 1.863281-10.152344 5.253906-14.050781l23.785156-27.359375c5.761719-6.628906 8.9375-15.117188 8.9375-23.902344v-32.261719h57.425781v32.261719c0 8.78125 3.175782 17.269531 8.9375 23.902344l23.785157 27.359375c3.386719 3.898437 5.253906 8.886719 5.253906 14.050781v14.449219h-133.378906zm-196.355469-8.136719c0-3.253906.949219-6.40625 2.742188-9.117187l14.398437-21.792969h147.058594l14.398437 21.792969c1.792969 2.710937 2.742188 5.863281 2.742188 9.113281v22.585937h-20v-17.367187c0-6.898437-5.613282-12.511719-12.511719-12.511719h-116.316406c-6.898438 0-12.511719 5.613282-12.511719 12.511719v17.367187h-20zm146.328125 7.71875v14.867188h-111.316406v-14.867188zm-256.617187-72.5c10.207031-5.777343 19.902343-7.855469 19.972656-7.871093.074218-.015626 5.578125-1.101563 13.253906-1.101563 2.546875 0 5.328125.121094 8.230469.4375 18.242187 1.996094 33.210937 14.800781 38.136719 32.628906 3.3125 11.988281 8.296874 34.605469 8.789062 63.273438h-100.667969c-5.84375-18.082031-8.601562-33.117188-9.863281-42.328125-2.515625-18.324219 6.179688-36 22.148438-45.039063zm449.710937 136.214844h-481.96875v-33.832031h132.824219c.699218.214844 1.445312.332031 2.214844.332031h194.523437c.585937.144531 1.199219.234375 1.832031.234375h148.394532c.757812 0 1.488281-.117188 2.179687-.324219zm0 0"/><path d="m129.390625 403.90625c.46875 0 .941406-.042969 1.417969-.136719 4.070312-.777343 6.742187-4.707031 5.964844-8.78125l-19.289063-101.097656c-.78125-4.074219-4.714844-6.746094-8.78125-5.964844-4.074219.773438-6.746094 4.707031-5.96875 8.777344l19.292969 101.101563c.683594 3.597656 3.832031 6.101562 7.363281 6.101562zm0 0"/><path d="m212.585938 403.902344c.207031 0 .417968-.007813.632812-.023438 4.128906-.34375 7.199219-3.976562 6.855469-8.105468l-8.441407-101.097657c-.34375-4.132812-3.96875-7.210937-8.105468-6.855469-4.132813.34375-7.199219 3.972657-6.855469 8.105469l8.4375 101.097657c.328125 3.917968 3.613281 6.878906 7.476563 6.878906zm0 0"/><path d="m382.609375 403.90625c3.53125 0 6.675781-2.503906 7.363281-6.101562l19.292969-101.101563c.777344-4.070313-1.894531-8.003906-5.96875-8.777344-4.070313-.78125-8.003906 1.894531-8.78125 5.964844l-19.289063 101.097656c-.777343 4.074219 1.894532 8.003907 5.964844 8.78125.476563.09375.949219.136719 1.417969.136719zm0 0"/><path d="m299.414062 403.902344c3.863282 0 7.148438-2.960938 7.476563-6.882813l8.4375-101.097656c.347656-4.132813-2.722656-7.761719-6.855469-8.105469-4.132812-.355468-7.761718 2.726563-8.105468 6.859375l-8.441407 101.097657c-.34375 4.128906 2.726563 7.757812 6.855469 8.105468.214844.015625.425781.023438.632812.023438zm0 0"/></svg>